<svg id="svg" version="1.1" xmlns="http://www.w3.org/2000/svg" xmlns:xlink="http://www.w3.org/1999/xlink" width="400" height="400" viewBox="0, 0, 400,400"><g id="svgg"><path id="path0" d="M117.205 111.755 C 111.317 112.909,106.584 117.786,105.466 123.850 C 105.200 125.296,105.101 151.329,105.170 201.780 L 105.273 277.539 106.485 280.097 C 110.028 287.573,118.738 291.142,125.798 288.012 C 127.597 287.214,193.626 243.601,211.791 231.213 C 217.230 227.504,226.723 221.066,232.887 216.907 C 244.974 208.752,246.005 207.813,247.134 203.936 C 249.401 196.152,244.102 188.551,236.020 187.994 C 231.874 187.708,230.749 188.325,210.547 201.971 C 183.000 220.578,130.407 255.538,130.230 255.360 C 130.145 255.275,130.120 230.391,130.174 200.061 L 130.273 144.916 148.029 156.247 C 157.795 162.479,165.912 167.578,166.068 167.578 C 166.224 167.578,171.386 164.262,177.539 160.210 L 188.728 152.842 158.915 133.572 C 121.086 109.122,123.690 110.484,117.205 111.755 M277.043 111.911 C 274.055 112.748,274.728 112.331,249.536 128.963 C 236.793 137.376,216.699 150.621,204.883 158.396 C 150.409 194.238,154.579 191.328,152.834 194.727 C 148.299 203.559,156.005 214.098,165.828 212.499 C 168.885 212.001,167.077 213.145,220.703 177.779 L 270.508 144.933 270.608 172.857 C 270.663 188.215,270.663 213.354,270.608 228.721 L 270.508 256.661 251.201 245.342 C 240.583 239.116,231.701 234.145,231.463 234.296 C 228.213 236.363,209.754 248.922,209.599 249.172 C 209.428 249.449,270.463 286.014,274.419 288.004 C 282.760 292.200,293.555 286.482,295.314 276.936 C 296.116 272.582,295.637 123.568,294.813 121.484 C 291.922 114.164,284.080 109.940,277.043 111.911 " stroke="none" fill="#fbfbfb" fill-rule="evenodd"></path><path id="path1" d="M183.789 0.421 C 130.803 5.283,84.077 28.720,49.897 67.578 C 5.033 118.582,-11.051 189.013,7.266 254.252 C 36.063 356.814,140.930 418.902,245.117 395.075 C 352.308 370.561,419.710 262.602,395.075 154.883 C 376.838 75.141,311.294 14.613,229.492 1.973 C 218.806 0.322,194.037 -0.519,183.789 0.421 M125.436 112.249 C 126.643 112.746,141.455 122.085,158.351 133.003 L 189.071 152.854 186.625 154.487 C 185.280 155.386,180.114 158.791,175.144 162.055 L 166.109 167.990 148.387 156.677 L 130.664 145.363 130.564 172.651 C 130.509 187.659,130.509 212.343,130.564 227.503 L 130.664 255.068 161.328 234.653 C 178.193 223.425,200.397 208.562,210.670 201.624 C 220.942 194.687,229.997 188.781,230.792 188.500 C 243.243 184.107,253.467 198.868,244.697 208.575 C 243.881 209.478,238.456 213.423,232.642 217.341 C 226.827 221.259,217.646 227.483,212.239 231.172 C 192.949 244.332,127.945 287.235,125.808 288.217 C 118.086 291.767,107.259 286.340,105.474 278.023 C 105.155 276.536,105.067 255.007,105.154 199.219 L 105.273 122.461 106.313 120.244 C 109.722 112.972,118.387 109.349,125.436 112.249 M287.190 112.805 C 290.255 114.314,293.005 117.122,294.461 120.227 L 295.508 122.461 295.508 200.391 L 295.508 278.320 294.461 280.554 C 291.109 287.705,282.439 291.396,275.560 288.600 C 274.285 288.082,258.770 279.057,241.082 268.544 L 208.922 249.430 210.027 248.547 C 215.099 244.500,231.801 233.933,232.563 234.289 C 233.022 234.503,241.660 239.526,251.758 245.449 L 270.117 256.220 270.217 228.500 C 270.273 213.255,270.273 188.333,270.217 173.118 L 270.117 145.455 219.922 178.582 C 165.832 214.279,167.718 213.147,162.920 212.801 C 152.669 212.062,147.708 199.882,154.424 191.943 C 154.992 191.271,166.361 183.536,179.689 174.755 C 193.016 165.974,212.842 152.900,223.747 145.703 C 281.084 107.860,275.451 111.227,281.094 111.428 C 284.157 111.537,285.002 111.728,287.190 112.805 " stroke="none" fill="#5b5bd4" fill-rule="evenodd"></path><path id="path2" d="M130.268 200.195 C 130.268 230.488,130.314 242.939,130.371 227.863 C 130.428 212.787,130.428 188.001,130.371 172.784 C 130.314 157.567,130.268 169.902,130.268 200.195 M270.503 200.781 C 270.503 231.396,270.549 243.921,270.605 228.613 C 270.662 213.306,270.662 188.257,270.605 172.949 C 270.549 157.642,270.503 170.166,270.503 200.781 M234.673 187.776 C 235.158 187.870,235.862 187.866,236.235 187.768 C 236.608 187.671,236.211 187.594,235.352 187.599 C 234.492 187.603,234.187 187.683,234.673 187.776 " stroke="none" fill="#9696e5" fill-rule="evenodd"></path><path id="path3" d="" stroke="none" fill="#acacec" fill-rule="evenodd"></path><path id="path4" d="" stroke="none" fill="#b4b4ec" fill-rule="evenodd"></path></g></svg>