<?xml version="1.0" encoding="UTF-8"?>
<svg xmlns="http://www.w3.org/2000/svg" xmlns:xlink="http://www.w3.org/1999/xlink" width="40px" height="40px" viewBox="0 0 40 40" version="1.1">
<g id="surface1">
<path style=" stroke:none;fill-rule:evenodd;fill:rgb(98.431373%,98.431373%,98.431373%);fill-opacity:1;" d="M 11.71875 11.175781 C 11.132812 11.289062 10.660156 11.777344 10.546875 12.386719 C 10.519531 12.53125 10.511719 15.132812 10.515625 20.179688 L 10.527344 27.753906 L 10.648438 28.007812 C 11.003906 28.757812 11.875 29.113281 12.578125 28.800781 C 12.757812 28.722656 19.363281 24.359375 21.179688 23.121094 C 21.722656 22.75 22.671875 22.105469 23.289062 21.691406 C 24.496094 20.875 24.601562 20.78125 24.714844 20.394531 C 24.941406 19.613281 24.410156 18.855469 23.601562 18.800781 C 23.1875 18.769531 23.074219 18.832031 21.054688 20.195312 C 18.300781 22.058594 13.039062 25.554688 13.023438 25.535156 C 13.015625 25.527344 13.011719 23.039062 13.015625 20.007812 L 13.027344 14.492188 L 14.804688 15.625 C 15.78125 16.246094 16.589844 16.757812 16.605469 16.757812 C 16.621094 16.757812 17.136719 16.425781 17.753906 16.019531 L 18.871094 15.285156 L 15.890625 13.355469 C 12.109375 10.914062 12.367188 11.046875 11.71875 11.175781 M 27.703125 11.191406 C 27.40625 11.273438 27.472656 11.234375 24.953125 12.894531 C 23.679688 13.738281 21.667969 15.0625 20.488281 15.839844 C 15.039062 19.421875 15.457031 19.132812 15.285156 19.472656 C 14.828125 20.355469 15.601562 21.410156 16.582031 21.25 C 16.886719 21.199219 16.707031 21.316406 22.070312 17.777344 L 27.050781 14.492188 L 27.0625 17.285156 C 27.066406 18.820312 27.066406 21.335938 27.0625 22.871094 L 27.050781 25.667969 L 25.121094 24.535156 C 24.058594 23.910156 23.171875 23.414062 23.144531 23.429688 C 22.820312 23.636719 20.976562 24.890625 20.960938 24.917969 C 20.941406 24.945312 27.046875 28.601562 27.441406 28.800781 C 28.277344 29.21875 29.355469 28.648438 29.53125 27.695312 C 29.613281 27.257812 29.5625 12.355469 29.480469 12.148438 C 29.191406 11.417969 28.40625 10.992188 27.703125 11.191406 "/>
<path style=" stroke:none;fill-rule:evenodd;fill:rgb(35.686275%,35.686275%,83.137255%);fill-opacity:1;" d="M 18.378906 0.0429688 C 13.082031 0.527344 8.40625 2.871094 4.988281 6.757812 C 0.503906 11.859375 -1.105469 18.902344 0.726562 25.425781 C 3.605469 35.679688 14.09375 41.890625 24.511719 39.507812 C 35.230469 37.054688 41.972656 26.261719 39.507812 15.488281 C 37.683594 7.515625 31.128906 1.460938 22.949219 0.199219 C 21.878906 0.03125 19.402344 -0.0507812 18.378906 0.0429688 M 12.542969 11.226562 C 12.664062 11.273438 14.144531 12.207031 15.835938 13.300781 L 18.90625 15.285156 L 18.664062 15.449219 C 18.527344 15.539062 18.011719 15.878906 17.515625 16.207031 L 16.609375 16.800781 L 14.839844 15.667969 L 13.066406 14.535156 L 13.054688 17.265625 C 13.050781 18.765625 13.050781 21.234375 13.054688 22.75 L 13.066406 25.507812 L 16.132812 23.464844 C 17.820312 22.34375 20.039062 20.855469 21.066406 20.164062 C 22.09375 19.46875 23 18.878906 23.078125 18.851562 C 24.324219 18.410156 25.347656 19.886719 24.46875 20.859375 C 24.386719 20.949219 23.84375 21.34375 23.265625 21.734375 C 22.683594 22.125 21.765625 22.75 21.222656 23.117188 C 19.292969 24.433594 12.792969 28.722656 12.582031 28.820312 C 11.808594 29.175781 10.726562 28.632812 10.546875 27.800781 C 10.515625 27.652344 10.507812 25.5 10.515625 19.921875 L 10.527344 12.246094 L 10.632812 12.023438 C 10.972656 11.296875 11.839844 10.933594 12.542969 11.226562 M 28.71875 11.28125 C 29.027344 11.429688 29.300781 11.710938 29.445312 12.023438 L 29.550781 12.246094 L 29.550781 27.832031 L 29.445312 28.054688 C 29.109375 28.769531 28.242188 29.140625 27.554688 28.859375 C 27.429688 28.808594 25.878906 27.90625 24.109375 26.855469 L 20.890625 24.941406 L 21.003906 24.855469 C 21.511719 24.449219 23.179688 23.394531 23.257812 23.429688 C 23.300781 23.449219 24.164062 23.953125 25.175781 24.542969 L 27.011719 25.621094 L 27.023438 22.851562 C 27.027344 21.324219 27.027344 18.832031 27.023438 17.3125 L 27.011719 14.546875 L 21.992188 17.859375 C 16.582031 21.429688 16.773438 21.316406 16.292969 21.28125 C 15.265625 21.207031 14.769531 19.988281 15.441406 19.195312 C 15.5 19.128906 16.636719 18.355469 17.96875 17.476562 C 19.300781 16.597656 21.285156 15.289062 22.375 14.570312 C 28.109375 10.785156 27.546875 11.121094 28.109375 11.144531 C 28.414062 11.152344 28.5 11.171875 28.71875 11.28125 "/>
<path style=" stroke:none;fill-rule:evenodd;fill:rgb(58.823529%,58.823529%,89.803922%);fill-opacity:1;" d="M 13.027344 20.019531 C 13.027344 23.046875 13.03125 24.292969 13.035156 22.785156 C 13.042969 21.277344 13.042969 18.800781 13.035156 17.277344 C 13.03125 15.757812 13.027344 16.988281 13.027344 20.019531 M 27.050781 20.078125 C 27.050781 23.140625 27.054688 24.390625 27.058594 22.859375 C 27.066406 21.332031 27.066406 18.824219 27.058594 17.292969 C 27.054688 15.765625 27.050781 17.015625 27.050781 20.078125 M 23.46875 18.777344 C 23.515625 18.785156 23.585938 18.785156 23.625 18.777344 C 23.660156 18.765625 23.621094 18.757812 23.535156 18.761719 C 23.449219 18.761719 23.417969 18.769531 23.46875 18.777344 "/>
</g>
</svg>
